<?xml version="1.0" encoding="UTF-8" standalone="no"?>
<svg
   xmlns:dc="http://purl.org/dc/elements/1.1/"
   xmlns:cc="http://creativecommons.org/ns#"
   xmlns:rdf="http://www.w3.org/1999/02/22-rdf-syntax-ns#"
   xmlns:svg="http://www.w3.org/2000/svg"
   xmlns="http://www.w3.org/2000/svg"
   xmlns:sodipodi="http://sodipodi.sourceforge.net/DTD/sodipodi-0.dtd"
   xmlns:inkscape="http://www.inkscape.org/namespaces/inkscape"
   aria-hidden="true"
   data-prefix="fas"
   data-icon="play"
   class="svg-inline--fa fa-play fa-w-14"
   role="img"
   viewBox="0 0 448 512"
   id="svg3355"
   version="1.1"
   inkscape:version="0.91 r13725"
   sodipodi:docname="play-solid.svg"
   inkscape:export-filename="C:\Users\mayersn\Desktop\ambient-interaction-systems-comparison\Ambient-Notifications-VR\Assets\Objects\speaker\plus-solid.jpg"
   inkscape:export-xdpi="300.05859"
   inkscape:export-ydpi="300.05859">
  <metadata
     id="metadata3363">
    <rdf:RDF>
      <cc:Work
         rdf:about="">
        <dc:format>image/svg+xml</dc:format>
        <dc:type
           rdf:resource="http://purl.org/dc/dcmitype/StillImage" />
      </cc:Work>
    </rdf:RDF>
  </metadata>
  <defs
     id="defs3361" />
  <sodipodi:namedview
     pagecolor="#ffffff"
     bordercolor="#666666"
     borderopacity="1"
     objecttolerance="10"
     gridtolerance="10"
     guidetolerance="10"
     inkscape:pageopacity="0"
     inkscape:pageshadow="2"
     inkscape:window-width="1920"
     inkscape:window-height="1137"
     id="namedview3359"
     showgrid="false"
     inkscape:zoom="0.91601563"
     inkscape:cx="136.86835"
     inkscape:cy="159.17391"
     inkscape:window-x="-8"
     inkscape:window-y="-8"
     inkscape:window-maximized="1"
     inkscape:current-layer="svg3355" />
  <rect
     style="fill:#ffffff;fill-rule:evenodd;stroke:#000000;stroke-width:1px;stroke-linecap:butt;stroke-linejoin:miter;stroke-opacity:1;fill-opacity:1"
     id="rect3365"
     width="925.74841"
     height="713.96161"
     x="-296.93817"
     y="-78.60128" />
  <path
     d="M 363.30404,227.26253 118.62592,82.610477 C 98.745818,70.863147 68.300073,82.262927 68.300073,111.31845 l 0,289.23458 c 0,26.06656 28.290908,41.77601 50.325847,28.70797 L 363.30404,284.67847 c 21.82641,-12.85951 21.89592,-44.55644 0,-57.41594 z"
     id="path3357"
     inkscape:connector-curvature="0"
     style="fill:currentColor" />
  <path
     id="path4184"
     d="m 359.2324,222.1919 -270.46481,0 c -12.445608,0 -22.538733,10.09312 -22.538733,22.53873 l 0,22.53874 c 0,12.4456 10.093125,22.53873 22.538733,22.53873 l 270.46481,0 c 12.44561,0 22.53874,-10.09313 22.53874,-22.53873 l 0,-22.53874 c 0,-12.44561 -10.09313,-22.53873 -22.53874,-22.53873 z"
     inkscape:connector-curvature="0"
     style="fill:currentColor" />
  <path
     id="path4195"
     d="m 358.92051,222.26987 -101.19038,0 0,-101.19037 c 0,-12.41691 -10.06984,-22.486751 -22.48675,-22.486751 l -22.48675,0 c -12.4169,0 -22.48675,10.069841 -22.48675,22.486751 l 0,101.19037 -101.190376,0 c -12.416903,0 -22.486751,10.06985 -22.486751,22.48675 l 0,22.48675 c 0,12.41691 10.069848,22.48675 22.486751,22.48675 l 101.190376,0 0,101.19038 c 0,12.4169 10.06985,22.48675 22.48675,22.48675 l 22.48675,0 c 12.41691,0 22.48675,-10.06985 22.48675,-22.48675 l 0,-101.19038 101.19038,0 c 12.4169,0 22.48674,-10.06984 22.48674,-22.48675 l 0,-22.48675 c 0,-12.4169 -10.06984,-22.48675 -22.48674,-22.48675 z"
     inkscape:connector-curvature="0"
     style="fill:currentColor" />
</svg>
