<?xml version="1.0" encoding="UTF-8" standalone="no"?>
<!-- Created with Inkscape (http://www.inkscape.org/) -->

<svg
   xmlns:dc="http://purl.org/dc/elements/1.1/"
   xmlns:cc="http://creativecommons.org/ns#"
   xmlns:rdf="http://www.w3.org/1999/02/22-rdf-syntax-ns#"
   xmlns:svg="http://www.w3.org/2000/svg"
   xmlns="http://www.w3.org/2000/svg"
   xmlns:sodipodi="http://sodipodi.sourceforge.net/DTD/sodipodi-0.dtd"
   xmlns:inkscape="http://www.inkscape.org/namespaces/inkscape"
   width="1417.3229"
   height="1062.9921"
   viewBox="0 0 400 299.99997"
   version="1.1"
   id="svg8"
   inkscape:version="0.48.4 r9939"
   sodipodi:docname="peppermill_v2.pdf">
  <defs
     id="defs2" />
  <sodipodi:namedview
     id="base"
     pagecolor="#ffffff"
     bordercolor="#666666"
     borderopacity="1.0"
     inkscape:pageopacity="0.0"
     inkscape:pageshadow="2"
     inkscape:zoom="0.35355339"
     inkscape:cx="474.77852"
     inkscape:cy="536.76911"
     inkscape:document-units="mm"
     inkscape:current-layer="layer2"
     showgrid="false"
     inkscape:window-width="1600"
     inkscape:window-height="847"
     inkscape:window-x="-8"
     inkscape:window-y="-8"
     inkscape:window-maximized="1"
     showguides="true"
     inkscape:guide-bbox="true"
     width="400mm"
     units="mm" />
  <metadata
     id="metadata5">
    <rdf:RDF>
      <cc:Work
         rdf:about="">
        <dc:format>image/svg+xml</dc:format>
        <dc:type
           rdf:resource="http://purl.org/dc/dcmitype/StillImage" />
        <dc:title></dc:title>
      </cc:Work>
    </rdf:RDF>
  </metadata>
  <g
     inkscape:label="Ebene 1"
     inkscape:groupmode="layer"
     id="layer1"
     style="display:inline"
     transform="translate(0,2.9999839)" />
  <g
     inkscape:groupmode="layer"
     id="layer2"
     inkscape:label="Layer"
     style="display:inline"
     transform="translate(0,2.9999839)">
    <g
       id="g1146"
       transform="translate(8.1321209,-1.2971438)">
      <circle
         r="30.986244"
         cy="247.37624"
         cx="328.7587"
         id="path815-4-8-2-7"
         style="fill:none;stroke:#ff0000;stroke-width:0.02751233;stroke-linecap:square;stroke-linejoin:miter;stroke-miterlimit:4;stroke-opacity:1;stroke-dasharray:none;stroke-dashoffset:0;display:inline"
         sodipodi:cx="328.7587"
         sodipodi:cy="247.37624"
         sodipodi:rx="30.986244"
         sodipodi:ry="30.986244"
         d="M 359.74494,247.37624 C 359.74494,264.48947 345.87193,278.36248 328.7587,278.36248 311.64547,278.36248 297.77245,264.48947 297.77245,247.37624 297.77245,230.26301 311.64547,216.38999 328.7587,216.38999 345.87193,216.38999 359.74494,230.26301 359.74494,247.37624 z" />
      <rect
         transform="matrix(-0.56408895,-0.82571403,0.82571403,-0.56408895,0,0)"
         y="90.807587"
         x="-342.32718"
         height="5.343307"
         width="9.6342516"
         id="rect2984-9-2-6-3"
         style="fill:#00ff00;fill-opacity:1;stroke:none;display:inline" />
      <rect
         transform="matrix(0.56408899,0.825714,-0.825714,0.56408899,0,0)"
         y="-98.714973"
         x="386.32712"
         height="5.343307"
         width="9.6342516"
         id="rect2984-9-2-6-4"
         style="fill:#00ff00;fill-opacity:1;stroke:none;display:inline" />
      <rect
         transform="matrix(-0.82571403,0.56408895,-0.56408895,-0.82571403,0,0)"
         y="-356.50772"
         x="-135.30251"
         height="5.343307"
         width="9.6342516"
         id="rect2984-9-2-6-3-4-2"
         style="fill:#00ff00;fill-opacity:1;stroke:none;display:inline" />
      <circle
         r="30.986244"
         cy="247.37624"
         cx="238.75861"
         id="path815-4-8-2"
         style="fill:none;stroke:#ff0000;stroke-width:0.02751233;stroke-linecap:square;stroke-linejoin:miter;stroke-miterlimit:4;stroke-opacity:1;stroke-dasharray:none;stroke-dashoffset:0"
         sodipodi:cx="238.75861"
         sodipodi:cy="247.37624"
         sodipodi:rx="30.986244"
         sodipodi:ry="30.986244"
         d="M 269.74485,247.37624 C 269.74485,264.48947 255.87184,278.36248 238.75861,278.36248 221.64538,278.36248 207.77236,264.48947 207.77236,247.37624 207.77236,230.26301 221.64538,216.38999 238.75861,216.38999 255.87184,216.38999 269.74485,230.26301 269.74485,247.37624 z" />
      <rect
         transform="scale(1,-1)"
         y="-287.14877"
         x="235.18362"
         height="7.1499996"
         width="7.1499996"
         id="rect3995-3"
         style="fill:#00ff00;fill-opacity:1;stroke:none" />
      <rect
         y="207.60371"
         x="235.18362"
         height="7.1499996"
         width="7.1499996"
         id="rect3995-3-1"
         style="fill:#00ff00;fill-opacity:1;stroke:none" />
      <rect
         transform="scale(1,-1)"
         y="-287.14877"
         x="325.18369"
         height="7.1499996"
         width="7.1499996"
         id="rect3995-3-18"
         style="fill:#00ff00;fill-opacity:1;stroke:none" />
      <rect
         y="207.60371"
         x="325.18369"
         height="7.1499996"
         width="7.1499996"
         id="rect3995-3-1-9"
         style="fill:#00ff00;fill-opacity:1;stroke:none" />
      <rect
         transform="matrix(0.56408899,0.825714,-0.825714,0.56408899,0,0)"
         y="-24.400633"
         x="335.55905"
         height="5.343307"
         width="9.6342516"
         id="rect2984-9-2-6"
         style="fill:#00ff00;fill-opacity:1;stroke:none;display:inline" />
      <rect
         transform="matrix(0.825714,-0.56408899,0.56408899,0.825714,0,0)"
         y="372.14661"
         x="54.220032"
         height="5.343307"
         width="9.6342516"
         id="rect2984-9-2-6-7"
         style="fill:#00ff00;fill-opacity:1;stroke:none;display:inline" />
      <rect
         transform="matrix(-0.82571403,0.56408895,-0.56408895,-0.82571403,0,0)"
         y="-305.73965"
         x="-60.988159"
         height="5.343307"
         width="9.6342516"
         id="rect2984-9-2-6-3-4"
         style="fill:#00ff00;fill-opacity:1;stroke:none;display:inline" />
      <rect
         transform="matrix(-0.56408895,-0.82571403,0.82571403,-0.56408895,0,0)"
         y="165.12193"
         x="-393.09525"
         height="5.343307"
         width="9.6342516"
         id="rect2984-9-2-6-3-8"
         style="fill:#00ff00;fill-opacity:1;stroke:none;display:inline" />
      <rect
         transform="matrix(0.825714,-0.56408899,0.56408899,0.825714,0,0)"
         y="422.91464"
         x="128.53438"
         height="5.343307"
         width="9.6342516"
         id="rect2984-9-2-6-7-8"
         style="fill:#00ff00;fill-opacity:1;stroke:none;display:inline" />
      <path
         inkscape:connector-curvature="0"
         id="path815-4-8-2-5"
         d="M 238.75881,206.39449 A 40.981804,40.981807 0 0 0 197.77683,247.37598 40.981804,40.981807 0 0 0 238.75881,288.35797 40.981804,40.981807 0 0 0 239.25387,288.34037 H 328.40761 A 40.98173,40.981807 0 0 0 328.75901,288.35797 40.98173,40.981807 0 0 0 369.74049,247.37649 40.98173,40.981807 0 0 0 328.75901,206.39449 40.98173,40.981807 0 0 0 328.26395,206.41209 H 239.11022 A 40.981804,40.981807 0 0 0 238.75881,206.39449 z"
         style="fill:none;stroke:#ff0000;stroke-width:0.03638728;stroke-linecap:square;stroke-linejoin:miter;stroke-miterlimit:4;stroke-opacity:1;stroke-dasharray:none;stroke-dashoffset:0;display:inline" />
    </g>
    <g
       id="g1169"
       transform="translate(4.2406646,-103.29788)">
      <rect
         transform="matrix(0.56408899,0.825714,-0.825714,0.56408899,0,0)"
         y="75.203484"
         x="148.18564"
         height="5.343307"
         width="9.6342516"
         id="rect2984-9-2-6-5"
         style="fill:none;stroke:#ff0000;stroke-width:0.036;stroke-miterlimit:4;stroke-opacity:1;stroke-dasharray:none;display:inline" />
      <rect
         transform="matrix(-0.56408895,-0.82571403,0.82571403,-0.56408895,0,0)"
         y="-8.7965279"
         x="-154.95375"
         height="5.343307"
         width="9.6342516"
         id="rect2984-9-2-6-3-1"
         style="fill:none;stroke:#ff0000;stroke-width:0.036;stroke-miterlimit:4;stroke-opacity:1;stroke-dasharray:none;display:inline" />
      <rect
         transform="matrix(0.825714,-0.56408899,0.56408899,0.825714,0,0)"
         y="184.77316"
         x="-45.384087"
         height="5.343307"
         width="9.6342516"
         id="rect2984-9-2-6-7-7"
         style="fill:none;stroke:#ff0000;stroke-width:0.036;stroke-miterlimit:4;stroke-opacity:1;stroke-dasharray:none;display:inline" />
      <rect
         transform="matrix(-0.82571403,0.56408895,-0.56408895,-0.82571403,0,0)"
         y="-118.36622"
         x="38.615955"
         height="5.343307"
         width="9.6342516"
         id="rect2984-9-2-6-3-4-1"
         style="fill:none;stroke:#ff0000;stroke-width:0.036;stroke-miterlimit:4;stroke-opacity:1;stroke-dasharray:none;display:inline" />
      <rect
         transform="matrix(0.56408899,0.825714,-0.825714,0.56408899,0,0)"
         y="0.88914162"
         x="198.9537"
         height="5.343307"
         width="9.6342516"
         id="rect2984-9-2-6-4-5"
         style="fill:none;stroke:#ff0000;stroke-width:0.036;stroke-miterlimit:4;stroke-opacity:1;stroke-dasharray:none;display:inline" />
      <rect
         transform="matrix(-0.56408895,-0.82571403,0.82571403,-0.56408895,0,0)"
         y="65.517807"
         x="-205.72182"
         height="5.343307"
         width="9.6342516"
         id="rect2984-9-2-6-3-8-2"
         style="fill:none;stroke:#ff0000;stroke-width:0.036;stroke-miterlimit:4;stroke-opacity:1;stroke-dasharray:none;display:inline" />
      <rect
         transform="matrix(0.825714,-0.56408899,0.56408899,0.825714,0,0)"
         y="235.54123"
         x="28.930254"
         height="5.343307"
         width="9.6342516"
         id="rect2984-9-2-6-7-8-7"
         style="fill:none;stroke:#ff0000;stroke-width:0.036;stroke-miterlimit:4;stroke-opacity:1;stroke-dasharray:none;display:inline" />
      <rect
         transform="matrix(-0.82571403,0.56408895,-0.56408895,-0.82571403,0,0)"
         y="-169.13426"
         x="-35.69838"
         height="5.343307"
         width="9.6342516"
         id="rect2984-9-2-6-3-4-2-6"
         style="fill:none;stroke:#ff0000;stroke-width:0.036;stroke-miterlimit:4;stroke-opacity:1;stroke-dasharray:none;display:inline" />
      <path
         inkscape:connector-curvature="0"
         id="path815-4-8-2-5-0"
         d="M 50.819019,107.86322 A 40.981805,40.981807 0 0 0 9.8370253,148.8447 40.981805,40.981807 0 0 0 50.819019,189.82669 40.981805,40.981807 0 0 0 51.314078,189.80909 H 140.46781 A 40.981731,40.981807 0 0 0 140.81921,189.82669 40.981731,40.981807 0 0 0 181.80069,148.84521 40.981731,40.981807 0 0 0 140.81921,107.86322 40.981731,40.981807 0 0 0 140.32415,107.88082 H 51.17042 A 40.981805,40.981807 0 0 0 50.819019,107.86322 z"
         style="fill:none;stroke:#ff0000;stroke-width:0.036;stroke-linecap:square;stroke-linejoin:miter;stroke-miterlimit:4;stroke-opacity:1;stroke-dasharray:none;stroke-dashoffset:0;display:inline" />
      <circle
         r="2.05"
         cy="112.64745"
         cx="50.818813"
         id="path4151-3"
         style="fill:none;stroke:#ff0000;stroke-width:0.036;stroke-miterlimit:4;stroke-opacity:1;stroke-dasharray:none"
         sodipodi:cx="50.818813"
         sodipodi:cy="112.64745"
         sodipodi:rx="2.05"
         sodipodi:ry="2.05"
         d="M 52.868813,112.64745 C 52.868813,113.77964 51.950997,114.69745 50.818813,114.69745 49.68663,114.69745 48.768813,113.77964 48.768813,112.64745 48.768813,111.51527 49.68663,110.59745 50.818813,110.59745 51.950997,110.59745 52.868813,111.51527 52.868813,112.64745 z" />
      <circle
         r="2.05"
         cy="112.64745"
         cx="140.81891"
         id="path4151-2-1"
         style="fill:none;stroke:#ff0000;stroke-width:0.036;stroke-miterlimit:4;stroke-opacity:1;stroke-dasharray:none;display:inline"
         sodipodi:cx="140.81891"
         sodipodi:cy="112.64745"
         sodipodi:rx="2.05"
         sodipodi:ry="2.05"
         d="M 142.86891,112.64745 C 142.86891,113.77964 141.95109,114.69745 140.81891,114.69745 139.68672,114.69745 138.76891,113.77964 138.76891,112.64745 138.76891,111.51527 139.68672,110.59745 140.81891,110.59745 141.95109,110.59745 142.86891,111.51527 142.86891,112.64745 z" />
      <circle
         r="2.05"
         cy="185.0425"
         cx="140.81891"
         id="path4151-7-2"
         style="fill:none;stroke:#ff0000;stroke-width:0.036;stroke-miterlimit:4;stroke-opacity:1;stroke-dasharray:none;display:inline"
         sodipodi:cx="140.81891"
         sodipodi:cy="185.0425"
         sodipodi:rx="2.05"
         sodipodi:ry="2.05"
         d="M 142.86891,185.0425 C 142.86891,186.17468 141.95109,187.0925 140.81891,187.0925 139.68672,187.0925 138.76891,186.17468 138.76891,185.0425 138.76891,183.91031 139.68672,182.9925 140.81891,182.9925 141.95109,182.9925 142.86891,183.91031 142.86891,185.0425 z" />
      <circle
         r="2.05"
         cy="185.0425"
         cx="50.818813"
         id="path4151-9-3"
         style="fill:none;stroke:#ff0000;stroke-width:0.036;stroke-miterlimit:4;stroke-opacity:1;stroke-dasharray:none;display:inline"
         sodipodi:cx="50.818813"
         sodipodi:cy="185.0425"
         sodipodi:rx="2.05"
         sodipodi:ry="2.05"
         d="M 52.868813,185.0425 C 52.868813,186.17468 51.950997,187.0925 50.818813,187.0925 49.68663,187.0925 48.768813,186.17468 48.768813,185.0425 48.768813,183.91031 49.68663,182.9925 50.818813,182.9925 51.950997,182.9925 52.868813,183.91031 52.868813,185.0425 z" />
    </g>
    <g
       id="g3103"
       transform="translate(193.5744,-102.17536)">
      <path
         transform="matrix(0.28222221,0,0,0.28222221,0,197)"
         sodipodi:nodetypes="cccccccccssscsssccccssscssscccccccccccscsssccccccccccccssscssscccc"
         inkscape:connector-curvature="0"
         id="path815-4-8-2-5-0-7"
         d="M 241.1875,34.71875 241.1875,70.125 286.4375,70.125 286.4375,34.71875 z M 200.125,70.125 200.125,34.71875 167.125,34.71875 C 166.71884,34.69621 166.31259,34.675376 165.90625,34.65625 146.89689,34.655251 127.89481,38.434221 110.33226,45.708328 92.769705,52.982435 76.660505,63.745952 63.218856,77.187602 49.777206,90.629251 39.013688,106.73845 31.739581,124.301 24.465474,141.86356 20.686502,160.86564 20.6875,179.875 20.686502,198.88436 24.465474,217.88644 31.739581,235.449 39.013688,253.01155 49.777206,269.12075 63.218856,282.5624 76.660505,296.00405 92.769705,306.76757 110.33226,314.04167 127.89481,321.31578 146.89689,325.09475 165.90625,325.09375 166.4897,325.07643 167.07305,325.0556 167.65625,325.03125 L 483.5625,325.03125 C 483.96866,325.05379 484.37491,325.07462 484.78125,325.09375 503.7906,325.09478 522.79267,321.31584 540.35522,314.04175 557.91777,306.76766 574.02698,296.00414 587.46863,282.56249 600.91028,269.12084 611.6738,253.01163 618.94791,235.44906 626.22202,217.88649 630.001,198.88438 630,179.875 630.001,160.86562 626.22202,141.86351 618.94791,124.30094 611.6738,106.73837 600.91028,90.629162 587.46863,77.18751 574.02698,63.745857 557.91777,52.982345 540.35522,45.708253 522.79267,38.434162 503.7906,34.655217 484.78125,34.65625 484.1978,34.673566 483.61445,34.6944 483.03125,34.71875 L 364.25,34.71875 364.25,70.125 405.6875,70.125 C 406.12489,70.100197 406.56237,70.080217 407,70.0625 407.44798,70.080217 407.89598,70.100197 408.34375,70.125 L 483.15625,70.125 C 483.58327,70.112091 484.01036,70.101674 484.4375,70.09375 484.55163,70.090207 484.66712,70.069587 484.78125,70.0625 486.3109,70.102185 487.81418,70.203366 489.28125,70.3125 517.23151,71.454231 544.57078,83.761712 563.95606,103.9293 583.34134,124.0969 594.55813,151.90145 594.59375,179.875 594.59211,194.24749 591.73262,208.61399 586.23081,221.89174 580.72899,235.16948 572.58918,247.34801 562.42485,257.50945 552.26052,267.67088 540.07967,275.80723 526.80037,281.30527 513.52106,286.8033 499.15374,289.6587 484.78125,289.65625 484.73055,289.65345 484.67567,289.65979 484.625,289.65625 484.28115,289.63703 483.9374,289.6162 483.59375,289.59375 L 407.9375,289.59375 C 407.62509,289.61501 407.31248,289.63853 407,289.65625 406.68741,289.63499 406.37502,289.61501 406.0625,289.59375 L 245,289.59375 C 244.56265,289.61855 244.12513,289.63853 243.6875,289.65625 243.23948,289.63853 242.79152,289.61855 242.34375,289.59375 L 167.59375,289.59375 C 167.0939,289.618 166.59388,289.63884 166.09375,289.65625 166.03068,289.65905 165.96897,289.65271 165.90625,289.65625 151.53376,289.6587 137.16644,286.8033 123.88713,281.30527 110.60783,275.80723 98.426982,267.67088 88.262652,257.50945 78.098322,247.34801 69.958506,235.16948 64.456691,221.89174 58.954875,208.61399 56.09539,194.24749 56.09375,179.875 56.091299,165.49991 58.947743,151.12999 64.44772,137.84867 69.947698,124.56734 78.086877,112.38508 88.251602,102.22035 98.416327,92.055627 110.59859,83.916448 123.87992,78.41647 137.16124,72.916493 151.53116,70.060049 165.90625,70.0625 165.99412,70.069587 166.09963,70.090207 166.1875,70.09375 166.47921,70.103004 166.77088,70.11342 167.0625,70.125 z"
         style="fill:none;stroke:#ff0000;stroke-width:0.12755902;stroke-linecap:square;stroke-linejoin:miter;stroke-miterlimit:4;stroke-opacity:1;stroke-dasharray:none;stroke-dashoffset:0;display:inline" />
      <circle
         transform="translate(206.74545,28.736819)"
         r="2.05"
         cy="182.82939"
         cx="-159.92627"
         id="path4151-3-5"
         style="fill:none;stroke:#ff0000;stroke-width:0.036;stroke-miterlimit:4;stroke-opacity:1;stroke-dasharray:none"
         d="M -157.87627,182.82939 C -157.87627,183.96158 -158.79409,184.87939 -159.92627,184.87939 -161.05845,184.87939 -161.97627,183.96158 -161.97627,182.82939 -161.97627,181.69721 -161.05845,180.77939 -159.92627,180.77939 -158.79409,180.77939 -157.87627,181.69721 -157.87627,182.82939 z"
         sodipodi:cx="-159.92627"
         sodipodi:cy="182.82939"
         sodipodi:rx="2.05"
         sodipodi:ry="2.05" />
      <circle
         transform="translate(206.74545,28.736819)"
         r="2.05"
         cy="182.82939"
         cx="-69.926178"
         id="path4151-2-1-0"
         style="fill:none;stroke:#ff0000;stroke-width:0.036;stroke-miterlimit:4;stroke-opacity:1;stroke-dasharray:none;display:inline"
         d="M -67.876178,182.82939 C -67.876178,183.96158 -68.793994,184.87939 -69.926178,184.87939 -71.058362,184.87939 -71.976178,183.96158 -71.976178,182.82939 -71.976178,181.69721 -71.058362,180.77939 -69.926178,180.77939 -68.793994,180.77939 -67.876178,181.69721 -67.876178,182.82939 z"
         sodipodi:cx="-69.926178"
         sodipodi:cy="182.82939"
         sodipodi:rx="2.05"
         sodipodi:ry="2.05" />
      <circle
         transform="translate(206.74545,28.736819)"
         r="2.05"
         cy="255.22443"
         cx="-69.926178"
         id="path4151-7-2-2"
         style="fill:none;stroke:#ff0000;stroke-width:0.036;stroke-miterlimit:4;stroke-opacity:1;stroke-dasharray:none;display:inline"
         d="M -67.876178,255.22443 C -67.876178,256.35661 -68.793994,257.27443 -69.926178,257.27443 -71.058362,257.27443 -71.976178,256.35661 -71.976178,255.22443 -71.976178,254.09224 -71.058362,253.17443 -69.926178,253.17443 -68.793994,253.17443 -67.876178,254.09224 -67.876178,255.22443 z"
         sodipodi:cx="-69.926178"
         sodipodi:cy="255.22443"
         sodipodi:rx="2.05"
         sodipodi:ry="2.05" />
      <circle
         transform="translate(206.74545,28.736819)"
         r="2.05"
         cy="255.22443"
         cx="-159.92627"
         id="path4151-9-3-8"
         style="fill:none;stroke:#ff0000;stroke-width:0.036;stroke-miterlimit:4;stroke-opacity:1;stroke-dasharray:none;display:inline"
         d="M -157.87627,255.22443 C -157.87627,256.35661 -158.79409,257.27443 -159.92627,257.27443 -161.05845,257.27443 -161.97627,256.35661 -161.97627,255.22443 -161.97627,254.09224 -161.05845,253.17443 -159.92627,253.17443 -158.79409,253.17443 -157.87627,254.09224 -157.87627,255.22443 z"
         sodipodi:cx="-159.92627"
         sodipodi:cy="255.22443"
         sodipodi:rx="2.05"
         sodipodi:ry="2.05" />
    </g>
    <g
       id="g1154"
       transform="translate(-184.54426,99.531178)">
      <path
         inkscape:connector-curvature="0"
         id="path815-4-8-2-5-0-7-1"
         d="M 240.76962,107.77631 A 40.981805,40.981807 0 0 0 199.78762,148.75779 40.981805,40.981807 0 0 0 240.76962,189.73978 40.981805,40.981807 0 0 0 241.26467,189.72218 H 330.4184 A 40.981731,40.981807 0 0 0 330.7698,189.73978 40.981731,40.981807 0 0 0 371.75128,148.7583 40.981731,40.981807 0 0 0 330.7698,107.77631 40.981731,40.981807 0 0 0 330.27474,107.79391 H 241.12102 A 40.981805,40.981807 0 0 0 240.76962,107.77631 z"
         style="fill:none;stroke:#ff0000;stroke-width:0.036;stroke-linecap:square;stroke-linejoin:miter;stroke-miterlimit:4;stroke-opacity:1;stroke-dasharray:none;stroke-dashoffset:0;display:inline" />
      <path
         inkscape:connector-curvature="0"
         id="path815-4-8-2-5-0-7-9-3"
         d="M 221.81969,115.01893 213.86455,120.4517 216.55448,124.394 216.53688,124.403 218.47715,127.24286 A 30.986297,30.986297 0 0 0 209.78118,148.7623 30.986297,30.986297 0 0 0 213.43243,163.3232 L 210.32799,165.43987 210.33699,165.44887 207.0297,167.70665 212.46247,175.66179 216.88101,172.64554 216.87201,172.63654 219.22681,171.0314 A 30.986297,30.986297 0 0 0 240.77271,179.74501 30.986297,30.986297 0 0 0 241.14312,179.72741 H 262.34507 A 30.986297,30.986297 0 0 0 262.7243,179.74501 30.986297,30.986297 0 0 0 263.09472,179.72741 H 308.55014 A 30.98624,30.986297 0 0 0 308.81472,179.74501 30.98624,30.986297 0 0 0 309.0793,179.72741 H 330.50173 A 30.98624,30.986297 0 0 0 330.76632,179.74501 30.98624,30.986297 0 0 0 345.35368,176.07612 L 346.72069,178.07813 346.70309,178.08713 349.71934,182.49685 357.67448,177.06407 355.44316,173.79206 355.45216,173.78306 353.06209,170.27292 A 30.98624,30.986297 0 0 0 361.75806,148.7623 30.98624,30.986297 0 0 0 358.10681,134.2014 L 361.75806,131.7055 361.74906,131.6965 364.50955,129.80914 359.07677,121.854 354.65823,124.87025 354.66723,124.88785 352.32126,126.49299 A 30.98624,30.986297 0 0 0 330.76654,117.77056 30.98624,30.986297 0 0 0 330.39612,117.78816 H 309.19418 A 30.98624,30.986297 0 0 0 308.81496,117.77046 30.98624,30.986297 0 0 0 308.44454,117.78806 H 262.98913 A 30.986297,30.986297 0 0 0 262.72454,117.77046 30.986297,30.986297 0 0 0 262.45996,117.78806 H 241.03753 A 30.986297,30.986297 0 0 0 240.77295,117.77046 30.986297,30.986297 0 0 0 226.17677,121.43053 L 224.81857,119.44616 224.83617,119.42856 z"
         style="fill:none;stroke:#ff0000;stroke-width:0.02751238;stroke-linecap:square;stroke-linejoin:miter;stroke-miterlimit:4;stroke-opacity:1;stroke-dasharray:none;stroke-dashoffset:0;display:inline" />
      <circle
         r="2.05"
         id="path4151-3-5-8"
         style="fill:none;stroke:#ff0000;stroke-width:0.005;stroke-miterlimit:4;stroke-opacity:1;stroke-dasharray:none"
         cx="240.76941"
         cy="112.56054"
         sodipodi:cx="240.76941"
         sodipodi:cy="112.56054"
         sodipodi:rx="2.05"
         sodipodi:ry="2.05"
         d="M 242.81941,112.56054 C 242.81941,113.69272 241.90159,114.61054 240.76941,114.61054 239.63723,114.61054 238.71941,113.69272 238.71941,112.56054 238.71941,111.42836 239.63723,110.51054 240.76941,110.51054 241.90159,110.51054 242.81941,111.42836 242.81941,112.56054 z" />
      <circle
         r="2.05"
         id="path4151-2-1-0-9"
         style="fill:none;stroke:#ff0000;stroke-width:0.005;stroke-miterlimit:4;stroke-opacity:1;stroke-dasharray:none;display:inline"
         cx="330.7695"
         cy="112.56054"
         sodipodi:cx="330.7695"
         sodipodi:cy="112.56054"
         sodipodi:rx="2.05"
         sodipodi:ry="2.05"
         d="M 332.8195,112.56054 C 332.8195,113.69272 331.90168,114.61054 330.7695,114.61054 329.63732,114.61054 328.7195,113.69272 328.7195,112.56054 328.7195,111.42836 329.63732,110.51054 330.7695,110.51054 331.90168,110.51054 332.8195,111.42836 332.8195,112.56054 z" />
      <circle
         r="2.05"
         id="path4151-7-2-2-3"
         style="fill:none;stroke:#ff0000;stroke-width:0.005;stroke-miterlimit:4;stroke-opacity:1;stroke-dasharray:none;display:inline"
         cx="330.7695"
         cy="184.95558"
         sodipodi:cx="330.7695"
         sodipodi:cy="184.95558"
         sodipodi:rx="2.05"
         sodipodi:ry="2.05"
         d="M 332.8195,184.95558 C 332.8195,186.08777 331.90168,187.00558 330.7695,187.00558 329.63732,187.00558 328.7195,186.08777 328.7195,184.95558 328.7195,183.8234 329.63732,182.90558 330.7695,182.90558 331.90168,182.90558 332.8195,183.8234 332.8195,184.95558 z" />
      <circle
         r="2.05"
         id="path4151-9-3-8-4"
         style="fill:none;stroke:#ff0000;stroke-width:0.005;stroke-miterlimit:4;stroke-opacity:1;stroke-dasharray:none;display:inline"
         cx="240.76941"
         cy="184.95558"
         sodipodi:cx="240.76941"
         sodipodi:cy="184.95558"
         sodipodi:rx="2.05"
         sodipodi:ry="2.05"
         d="M 242.81941,184.95558 C 242.81941,186.08777 241.90159,187.00558 240.76941,187.00558 239.63723,187.00558 238.71941,186.08777 238.71941,184.95558 238.71941,183.8234 239.63723,182.90558 240.76941,182.90558 241.90159,182.90558 242.81941,183.8234 242.81941,184.95558 z" />
    </g>
    <g
       id="g3033"
       transform="translate(5.3622221,-105.83333)">
      <path
         inkscape:connector-curvature="0"
         id="path815-4-8-2-5-0-7-2"
         d="M 47.357777,205.57875 A 40.981805,40.981807 0 0 0 6.3757773,246.56023 40.981805,40.981807 0 0 0 47.357777,287.54222 40.981805,40.981807 0 0 0 47.852828,287.52462 H 137.00655 A 40.981731,40.981807 0 0 0 137.35795,287.54222 40.981731,40.981807 0 0 0 178.33943,246.56075 40.981731,40.981807 0 0 0 137.35795,205.57875 40.981731,40.981807 0 0 0 136.86289,205.59635 H 47.709178 A 40.981805,40.981807 0 0 0 47.357777,205.57875 z"
         style="fill:none;stroke:#ff0000;stroke-width:0.036;stroke-linecap:square;stroke-linejoin:miter;stroke-miterlimit:4;stroke-opacity:1;stroke-dasharray:none;stroke-dashoffset:0;display:inline" />
      <circle
         r="2.05"
         cy="210.36301"
         cx="47.357582"
         id="path4151-3-5-1"
         style="fill:none;stroke:#ff0000;stroke-width:0.036;stroke-miterlimit:4;stroke-opacity:1;stroke-dasharray:none;display:inline"
         d="M 49.407582,210.36301 C 49.407582,211.49519 48.489766,212.41301 47.357582,212.41301 46.225398,212.41301 45.307582,211.49519 45.307582,210.36301 45.307582,209.23082 46.225398,208.31301 47.357582,208.31301 48.489766,208.31301 49.407582,209.23082 49.407582,210.36301 z"
         sodipodi:cx="47.357582"
         sodipodi:cy="210.36301"
         sodipodi:rx="2.05"
         sodipodi:ry="2.05" />
      <circle
         cy="210.36301"
         cx="137.35768"
         id="path4151-2-1-0-4"
         style="fill:none;stroke:#ff0000;stroke-width:0.036;stroke-miterlimit:4;stroke-opacity:1;stroke-dasharray:none;display:inline"
         r="2.05"
         d="M 139.40768,210.36301 C 139.40768,211.49519 138.48986,212.41301 137.35768,212.41301 136.2255,212.41301 135.30768,211.49519 135.30768,210.36301 135.30768,209.23082 136.2255,208.31301 137.35768,208.31301 138.48986,208.31301 139.40768,209.23082 139.40768,210.36301 z"
         sodipodi:cx="137.35768"
         sodipodi:cy="210.36301"
         sodipodi:rx="2.05"
         sodipodi:ry="2.05" />
      <circle
         cy="282.75806"
         cx="137.35768"
         id="path4151-7-2-2-6"
         style="fill:none;stroke:#ff0000;stroke-width:0.036;stroke-miterlimit:4;stroke-opacity:1;stroke-dasharray:none;display:inline"
         r="2.05"
         d="M 139.40768,282.75806 C 139.40768,283.89024 138.48986,284.80806 137.35768,284.80806 136.2255,284.80806 135.30768,283.89024 135.30768,282.75806 135.30768,281.62587 136.2255,280.70806 137.35768,280.70806 138.48986,280.70806 139.40768,281.62587 139.40768,282.75806 z"
         sodipodi:cx="137.35768"
         sodipodi:cy="282.75806"
         sodipodi:rx="2.05"
         sodipodi:ry="2.05" />
      <circle
         cy="282.75806"
         cx="47.357582"
         id="path4151-9-3-8-3"
         style="fill:none;stroke:#ff0000;stroke-width:0.036;stroke-miterlimit:4;stroke-opacity:1;stroke-dasharray:none;display:inline"
         r="2.05"
         d="M 49.407582,282.75806 C 49.407582,283.89024 48.489766,284.80806 47.357582,284.80806 46.225398,284.80806 45.307582,283.89024 45.307582,282.75806 45.307582,281.62587 46.225398,280.70806 47.357582,280.70806 48.489766,280.70806 49.407582,281.62587 49.407582,282.75806 z"
         sodipodi:cx="47.357582"
         sodipodi:cy="282.75806"
         sodipodi:rx="2.05"
         sodipodi:ry="2.05" />
      <g
         transform="translate(-12.020534,39.7834)"
         id="g1129">
        <circle
           style="fill:none;stroke:#ff0000;stroke-width:0.02088975;stroke-miterlimit:4;stroke-opacity:1;stroke-dasharray:none;display:inline"
           id="path4151-2-1-0-44-9"
           cx="112.63776"
           cy="168.27736"
           r="1.1895552"
           d="M 113.82731,168.27736 C 113.82731,168.93433 113.29473,169.46691 112.63776,169.46691 111.98078,169.46691 111.4482,168.93433 111.4482,168.27736 111.4482,167.62039 111.98078,167.0878 112.63776,167.0878 113.29473,167.0878 113.82731,167.62039 113.82731,168.27736 z"
           sodipodi:cx="112.63776"
           sodipodi:cy="168.27736"
           sodipodi:rx="1.1895552"
           sodipodi:ry="1.1895552" />
        <circle
           style="fill:none;stroke:#ff0000;stroke-width:0.02088975;stroke-miterlimit:4;stroke-opacity:1;stroke-dasharray:none;display:inline"
           id="path4151-2-1-0-44-1-3"
           cx="96.118477"
           cy="168.27736"
           r="1.1895552"
           d="M 97.308032,168.27736 C 97.308032,168.93433 96.77545,169.46691 96.118477,169.46691 95.461504,169.46691 94.928922,168.93433 94.928922,168.27736 94.928922,167.62039 95.461504,167.0878 96.118477,167.0878 96.77545,167.0878 97.308032,167.62039 97.308032,168.27736 z"
           sodipodi:cx="96.118477"
           sodipodi:cy="168.27736"
           sodipodi:rx="1.1895552"
           sodipodi:ry="1.1895552" />
      </g>
    </g>
  </g>
</svg>
